<?xml version="1.0" encoding="UTF-8"?>
<svg xmlns="http://www.w3.org/2000/svg" xmlns:xlink="http://www.w3.org/1999/xlink" width="854" height="480" viewBox="0 0 854 480">
<defs>
<g>
<g id="glyph-0-0">
<path d="M 0.179688 -0.253906 C 0.453125 -0.265625 0.648438 -0.300781 0.765625 -0.359375 C 0.964844 -0.464844 1.0625 -0.664062 1.0625 -0.957031 L 1.0625 -5.796875 C 1.0625 -6.089844 0.96875 -6.285156 0.78125 -6.386719 C 0.671875 -6.449219 0.46875 -6.488281 0.179688 -6.503906 L 0.179688 -6.757812 L 3.675781 -6.757812 L 3.675781 -6.503906 C 3.269531 -6.492188 3 -6.433594 2.863281 -6.332031 C 2.726562 -6.230469 2.660156 -5.984375 2.660156 -5.585938 L 2.660156 -0.863281 C 2.660156 -0.640625 2.71875 -0.496094 2.835938 -0.425781 C 2.949219 -0.351562 3.175781 -0.316406 3.511719 -0.316406 C 4.113281 -0.316406 4.617188 -0.449219 5.027344 -0.714844 C 5.4375 -0.980469 5.789062 -1.496094 6.085938 -2.265625 L 6.375 -2.265625 L 5.972656 0 L 0.179688 0 Z "/>
</g>
<g id="glyph-0-1">
<path d="M 0.171875 -0.230469 C 1.234375 -1.382812 1.929688 -2.183594 2.25 -2.636719 C 2.746094 -3.320312 2.992188 -3.925781 2.992188 -4.453125 C 2.992188 -4.765625 2.898438 -5.058594 2.707031 -5.328125 C 2.515625 -5.601562 2.222656 -5.738281 1.820312 -5.738281 C 1.46875 -5.738281 1.171875 -5.617188 0.933594 -5.371094 C 0.804688 -5.238281 0.6875 -5.058594 0.585938 -4.835938 L 0.3125 -4.835938 C 0.535156 -5.527344 0.839844 -6.039062 1.230469 -6.375 C 1.621094 -6.707031 2.0625 -6.875 2.546875 -6.875 C 3.011719 -6.875 3.429688 -6.714844 3.808594 -6.394531 C 4.1875 -6.074219 4.375 -5.601562 4.375 -4.980469 C 4.375 -4.65625 4.285156 -4.320312 4.109375 -3.980469 C 3.929688 -3.636719 3.632812 -3.265625 3.210938 -2.867188 L 1.6875 -1.410156 L 1.6875 -1.328125 L 3.109375 -1.328125 C 3.605469 -1.328125 3.929688 -1.367188 4.078125 -1.449219 C 4.230469 -1.53125 4.382812 -1.75 4.535156 -2.105469 L 4.773438 -2.105469 L 4.328125 0 L 0.171875 0 Z "/>
</g>
</g>
</defs>
<g fill="rgb(13.333333%, 77.254902%, 36.862745%)" fill-opacity="1">
<use xlink:href="#glyph-0-0" x="30" y="27.5"/>
<use xlink:href="#glyph-0-1" x="37" y="27.5"/>
</g>
</svg>
