<?xml version="1.0" encoding="UTF-8"?>
<svg xmlns="http://www.w3.org/2000/svg" xmlns:xlink="http://www.w3.org/1999/xlink" width="1920" height="1080" viewBox="0 0 1920 1080">
<defs>
<g>
<g id="glyph-0-0">
<path d="M 0.210938 -0.210938 C 0.4375 -0.21875 0.597656 -0.25 0.691406 -0.300781 C 0.851562 -0.386719 0.933594 -0.554688 0.933594 -0.796875 L 0.933594 -4.828125 C 0.933594 -5.070312 0.859375 -5.234375 0.710938 -5.316406 C 0.621094 -5.367188 0.457031 -5.402344 0.210938 -5.417969 L 0.210938 -5.632812 L 3.027344 -5.632812 L 3.027344 -5.417969 C 2.738281 -5.394531 2.546875 -5.339844 2.445312 -5.257812 C 2.34375 -5.171875 2.292969 -4.972656 2.292969 -4.65625 L 2.292969 -2.871094 L 4.089844 -4.6875 C 4.214844 -4.8125 4.292969 -4.902344 4.332031 -4.953125 C 4.367188 -5.007812 4.386719 -5.070312 4.386719 -5.148438 C 4.386719 -5.253906 4.339844 -5.320312 4.242188 -5.351562 C 4.144531 -5.378906 3.960938 -5.402344 3.683594 -5.417969 L 3.683594 -5.632812 L 6.09375 -5.632812 L 6.09375 -5.417969 C 5.664062 -5.382812 5.304688 -5.261719 5.023438 -5.054688 C 4.738281 -4.84375 4.203125 -4.335938 3.414062 -3.527344 L 5.957031 -0.382812 C 6.011719 -0.316406 6.066406 -0.273438 6.117188 -0.253906 C 6.171875 -0.238281 6.253906 -0.222656 6.363281 -0.210938 L 6.363281 0 L 3.570312 0 L 3.570312 -0.210938 C 3.820312 -0.214844 3.992188 -0.226562 4.085938 -0.242188 C 4.175781 -0.261719 4.222656 -0.3125 4.222656 -0.386719 C 4.222656 -0.421875 4.207031 -0.46875 4.179688 -0.523438 C 4.148438 -0.578125 4.097656 -0.652344 4.019531 -0.75 L 2.507812 -2.640625 L 2.292969 -2.429688 L 2.292969 -0.796875 C 2.292969 -0.554688 2.375 -0.390625 2.535156 -0.304688 C 2.628906 -0.253906 2.789062 -0.222656 3.015625 -0.210938 L 3.015625 0 L 0.210938 0 Z "/>
</g>
<g id="glyph-0-1">
<path d="M 0.152344 -0.210938 C 0.378906 -0.21875 0.542969 -0.25 0.640625 -0.300781 C 0.804688 -0.386719 0.886719 -0.554688 0.886719 -0.796875 L 0.886719 -4.828125 C 0.886719 -5.074219 0.808594 -5.238281 0.652344 -5.320312 C 0.558594 -5.371094 0.390625 -5.40625 0.152344 -5.417969 L 0.152344 -5.632812 L 3.0625 -5.632812 L 3.0625 -5.417969 C 2.722656 -5.410156 2.5 -5.363281 2.386719 -5.277344 C 2.273438 -5.191406 2.21875 -4.984375 2.21875 -4.65625 L 2.21875 -0.71875 C 2.21875 -0.535156 2.265625 -0.414062 2.363281 -0.355469 C 2.457031 -0.292969 2.644531 -0.265625 2.925781 -0.265625 C 3.425781 -0.265625 3.847656 -0.375 4.1875 -0.597656 C 4.527344 -0.816406 4.824219 -1.246094 5.070312 -1.886719 L 5.3125 -1.886719 L 4.976562 0 L 0.152344 0 Z "/>
</g>
<g id="glyph-0-2">
<rect x="0" y="0" width="0" height="0" mask="url(#mask-0)"/>
</g>
<g id="glyph-0-3">
<path d="M 4.539062 -1.703125 L 4.539062 -0.855469 L 0.199219 -0.855469 L 0.199219 -1.703125 Z M 4.539062 -3.492188 L 4.539062 -2.632812 L 0.199219 -2.632812 L 0.199219 -3.492188 Z "/>
</g>
<g id="glyph-0-4">
<path d="M 0.5 -5.109375 C 0.5 -5.289062 0.5625 -5.441406 0.691406 -5.566406 C 0.816406 -5.695312 0.96875 -5.757812 1.148438 -5.757812 C 1.324219 -5.757812 1.476562 -5.695312 1.601562 -5.566406 C 1.726562 -5.441406 1.789062 -5.289062 1.789062 -5.109375 C 1.789062 -4.929688 1.726562 -4.777344 1.601562 -4.652344 C 1.476562 -4.527344 1.324219 -4.464844 1.148438 -4.464844 C 0.96875 -4.464844 0.816406 -4.527344 0.691406 -4.652344 C 0.5625 -4.777344 0.5 -4.929688 0.5 -5.109375 Z M 0.132812 -0.199219 C 0.28125 -0.222656 0.382812 -0.261719 0.433594 -0.308594 C 0.515625 -0.382812 0.558594 -0.515625 0.558594 -0.703125 L 0.558594 -3.152344 C 0.558594 -3.320312 0.527344 -3.4375 0.472656 -3.496094 C 0.414062 -3.558594 0.300781 -3.605469 0.132812 -3.632812 L 0.132812 -3.835938 L 1.734375 -3.835938 L 1.734375 -0.671875 C 1.734375 -0.488281 1.761719 -0.371094 1.816406 -0.320312 C 1.871094 -0.269531 1.96875 -0.230469 2.121094 -0.199219 L 2.121094 0 L 0.132812 0 Z "/>
</g>
<g id="glyph-0-5">
<path d="M 0.132812 -0.199219 C 0.285156 -0.21875 0.398438 -0.257812 0.46875 -0.324219 C 0.542969 -0.386719 0.578125 -0.515625 0.578125 -0.703125 L 0.578125 -3.152344 C 0.578125 -3.320312 0.546875 -3.4375 0.492188 -3.503906 C 0.433594 -3.570312 0.3125 -3.613281 0.132812 -3.632812 L 0.132812 -3.835938 L 1.714844 -3.835938 L 1.714844 -3.238281 C 1.847656 -3.4375 2.015625 -3.605469 2.21875 -3.738281 C 2.425781 -3.871094 2.652344 -3.933594 2.902344 -3.933594 C 3.257812 -3.933594 3.535156 -3.84375 3.734375 -3.65625 C 3.929688 -3.472656 4.027344 -3.148438 4.027344 -2.683594 L 4.027344 -0.671875 C 4.027344 -0.484375 4.058594 -0.363281 4.125 -0.308594 C 4.1875 -0.253906 4.292969 -0.21875 4.441406 -0.199219 L 4.441406 0 L 2.484375 0 L 2.484375 -0.199219 C 2.632812 -0.230469 2.738281 -0.269531 2.792969 -0.320312 C 2.847656 -0.371094 2.871094 -0.488281 2.871094 -0.671875 L 2.871094 -2.691406 C 2.871094 -2.878906 2.855469 -3.023438 2.816406 -3.117188 C 2.75 -3.289062 2.621094 -3.375 2.429688 -3.375 C 2.285156 -3.375 2.152344 -3.320312 2.03125 -3.214844 C 1.910156 -3.113281 1.820312 -3.007812 1.753906 -2.902344 L 1.753906 -0.671875 C 1.753906 -0.488281 1.78125 -0.371094 1.835938 -0.320312 C 1.890625 -0.269531 1.992188 -0.230469 2.140625 -0.199219 L 2.140625 0 L 0.132812 0 Z "/>
</g>
<g id="glyph-0-6">
<path d="M 2.40625 -5.75 C 2.738281 -5.75 3.042969 -5.707031 3.316406 -5.628906 C 3.730469 -5.515625 3.933594 -5.304688 3.933594 -5 C 3.933594 -4.789062 3.84375 -4.640625 3.667969 -4.558594 C 3.578125 -4.515625 3.480469 -4.492188 3.382812 -4.492188 C 3.234375 -4.492188 3.105469 -4.53125 3 -4.613281 C 2.894531 -4.695312 2.84375 -4.800781 2.84375 -4.929688 C 2.84375 -4.992188 2.871094 -5.109375 2.929688 -5.273438 C 2.929688 -5.339844 2.886719 -5.394531 2.796875 -5.4375 C 2.710938 -5.484375 2.601562 -5.503906 2.472656 -5.503906 C 2.152344 -5.503906 1.945312 -5.363281 1.84375 -5.078125 C 1.785156 -4.910156 1.753906 -4.605469 1.753906 -4.171875 L 1.753906 -3.78125 L 2.605469 -3.78125 C 2.765625 -3.789062 2.917969 -3.796875 3.054688 -3.804688 C 3.191406 -3.816406 3.375 -3.832031 3.605469 -3.855469 L 4.046875 -3.90625 L 4.046875 -0.671875 C 4.046875 -0.480469 4.082031 -0.359375 4.144531 -0.308594 C 4.207031 -0.253906 4.3125 -0.21875 4.464844 -0.199219 L 4.464844 0 L 2.507812 0 L 2.507812 -0.199219 C 2.660156 -0.230469 2.761719 -0.269531 2.8125 -0.320312 C 2.867188 -0.371094 2.894531 -0.488281 2.894531 -0.671875 L 2.894531 -3.191406 C 2.894531 -3.289062 2.875 -3.351562 2.839844 -3.378906 C 2.800781 -3.402344 2.710938 -3.414062 2.5625 -3.414062 L 1.753906 -3.414062 L 1.753906 -0.683594 L 1.78125 -0.421875 C 1.789062 -0.347656 1.828125 -0.296875 1.894531 -0.269531 C 1.960938 -0.238281 2.042969 -0.214844 2.140625 -0.199219 L 2.140625 0 L 0.113281 0 L 0.113281 -0.199219 C 0.285156 -0.21875 0.398438 -0.25 0.457031 -0.292969 C 0.546875 -0.363281 0.59375 -0.5 0.59375 -0.703125 L 0.59375 -3.414062 L 0.113281 -3.414062 L 0.113281 -3.78125 L 0.59375 -3.78125 C 0.59375 -4.195312 0.628906 -4.5 0.699219 -4.691406 C 0.769531 -4.9375 0.90625 -5.148438 1.109375 -5.320312 C 1.285156 -5.46875 1.480469 -5.578125 1.703125 -5.648438 C 1.925781 -5.714844 2.160156 -5.75 2.40625 -5.75 Z "/>
</g>
<g id="glyph-0-7">
<path d="M 0.132812 -3.472656 L 0.132812 -3.703125 C 0.207031 -3.769531 0.296875 -3.851562 0.40625 -3.941406 C 0.550781 -4.074219 0.6875 -4.210938 0.8125 -4.355469 C 1.066406 -4.632812 1.296875 -4.925781 1.5 -5.246094 L 1.714844 -5.246094 L 1.714844 -3.835938 L 2.507812 -3.835938 L 2.507812 -3.472656 L 1.714844 -3.472656 L 1.714844 -0.964844 C 1.714844 -0.847656 1.730469 -0.75 1.765625 -0.671875 C 1.820312 -0.550781 1.910156 -0.488281 2.035156 -0.488281 C 2.144531 -0.488281 2.234375 -0.527344 2.308594 -0.605469 C 2.378906 -0.683594 2.453125 -0.789062 2.527344 -0.921875 L 2.726562 -0.824219 C 2.628906 -0.597656 2.511719 -0.414062 2.375 -0.269531 C 2.136719 -0.015625 1.847656 0.109375 1.5 0.109375 C 1.304688 0.109375 1.136719 0.0742188 0.988281 0 C 0.707031 -0.140625 0.566406 -0.398438 0.566406 -0.769531 L 0.566406 -3.472656 Z "/>
</g>
<g id="glyph-0-8">
<path d="M 0.132812 1.074219 C 0.132812 0.882812 0.1875 0.746094 0.300781 0.65625 C 0.410156 0.566406 0.539062 0.519531 0.691406 0.519531 C 0.824219 0.519531 0.933594 0.558594 1.019531 0.640625 C 1.105469 0.71875 1.148438 0.8125 1.148438 0.917969 L 1.128906 1.101562 C 1.128906 1.136719 1.140625 1.171875 1.167969 1.199219 C 1.195312 1.230469 1.230469 1.246094 1.269531 1.246094 C 1.40625 1.246094 1.53125 1.136719 1.648438 0.914062 C 1.722656 0.78125 1.828125 0.515625 1.964844 0.117188 L 0.964844 -2.351562 C 0.894531 -2.523438 0.824219 -2.6875 0.757812 -2.839844 C 0.691406 -2.992188 0.621094 -3.140625 0.550781 -3.285156 C 0.472656 -3.429688 0.414062 -3.523438 0.371094 -3.558594 C 0.328125 -3.597656 0.25 -3.621094 0.132812 -3.632812 L 0.132812 -3.835938 L 2.21875 -3.835938 L 2.21875 -3.632812 C 2.085938 -3.628906 1.980469 -3.617188 1.898438 -3.589844 C 1.816406 -3.5625 1.773438 -3.503906 1.773438 -3.414062 C 1.773438 -3.394531 1.777344 -3.367188 1.789062 -3.335938 C 1.796875 -3.304688 1.820312 -3.246094 1.851562 -3.160156 L 2.507812 -1.484375 L 2.570312 -1.484375 L 3.105469 -2.988281 C 3.132812 -3.070312 3.152344 -3.140625 3.171875 -3.199219 C 3.1875 -3.261719 3.199219 -3.316406 3.199219 -3.359375 C 3.199219 -3.476562 3.160156 -3.550781 3.082031 -3.582031 C 3.003906 -3.613281 2.890625 -3.628906 2.738281 -3.632812 L 2.738281 -3.835938 L 4 -3.835938 L 4 -3.632812 C 3.890625 -3.625 3.800781 -3.597656 3.734375 -3.546875 C 3.664062 -3.496094 3.59375 -3.375 3.519531 -3.183594 L 2.273438 0.136719 C 2.046875 0.75 1.851562 1.167969 1.6875 1.386719 C 1.523438 1.605469 1.265625 1.71875 0.914062 1.71875 C 0.660156 1.71875 0.464844 1.648438 0.332031 1.515625 C 0.199219 1.382812 0.132812 1.234375 0.132812 1.074219 Z "/>
</g>
</g>
<image id="source-62" x="0" y="0" width="0" height="0"/>
<mask id="mask-0">
<use xlink:href="#source-62"/>
</mask>
</defs>
<g fill="rgb(93.72549%, 26.666667%, 26.666667%)" fill-opacity="1">
<use xlink:href="#glyph-0-0" x="30" y="26.25"/>
<use xlink:href="#glyph-0-1" x="36" y="26.25"/>
<use xlink:href="#glyph-0-2" x="41" y="26.25"/>
<use xlink:href="#glyph-0-3" x="43" y="26.25"/>
<use xlink:href="#glyph-0-2" x="48" y="26.25"/>
<use xlink:href="#glyph-0-4" x="50" y="26.25"/>
<use xlink:href="#glyph-0-5" x="52" y="26.25"/>
<use xlink:href="#glyph-0-6" x="57" y="26.25"/>
<use xlink:href="#glyph-0-5" x="62" y="26.25"/>
<use xlink:href="#glyph-0-4" x="67" y="26.25"/>
<use xlink:href="#glyph-0-7" x="69" y="26.25"/>
<use xlink:href="#glyph-0-8" x="72" y="26.25"/>
</g>
</svg>
