<?xml version="1.0" encoding="UTF-8"?>
<svg xmlns="http://www.w3.org/2000/svg" xmlns:xlink="http://www.w3.org/1999/xlink" width="1920" height="1080" viewBox="0 0 1920 1080">
<defs>
<g>
<g id="glyph-0-0">
<path d="M 0.121094 -0.167969 C 0.304688 -0.175781 0.433594 -0.199219 0.511719 -0.242188 C 0.644531 -0.3125 0.710938 -0.441406 0.710938 -0.636719 L 0.710938 -3.863281 C 0.710938 -4.058594 0.648438 -4.191406 0.519531 -4.257812 C 0.445312 -4.300781 0.3125 -4.324219 0.121094 -4.335938 L 0.121094 -4.503906 L 2.453125 -4.503906 L 2.453125 -4.335938 C 2.179688 -4.328125 2 -4.289062 1.910156 -4.222656 C 1.820312 -4.15625 1.773438 -3.988281 1.773438 -3.722656 L 1.773438 -0.578125 C 1.773438 -0.429688 1.8125 -0.332031 1.890625 -0.285156 C 1.96875 -0.234375 2.117188 -0.210938 2.339844 -0.210938 C 2.742188 -0.210938 3.078125 -0.300781 3.351562 -0.476562 C 3.625 -0.652344 3.859375 -1 4.054688 -1.511719 L 4.25 -1.511719 L 3.980469 0 L 0.121094 0 Z "/>
</g>
<g id="glyph-0-1">
<path d="M 0.304688 -1.691406 C 0.304688 -2.285156 0.433594 -2.824219 0.691406 -3.308594 C 0.984375 -3.859375 1.433594 -4.300781 2.035156 -4.628906 L 2.035156 -4.445312 C 1.675781 -4.191406 1.441406 -3.941406 1.328125 -3.695312 C 1.152344 -3.308594 1.066406 -2.660156 1.066406 -1.75 C 1.066406 -0.839844 1.152344 -0.191406 1.332031 0.199219 C 1.445312 0.445312 1.679688 0.695312 2.035156 0.945312 L 2.035156 1.128906 C 1.582031 0.898438 1.207031 0.578125 0.914062 0.167969 C 0.542969 -0.351562 0.339844 -0.96875 0.304688 -1.691406 Z "/>
</g>
<g id="glyph-0-2">
<path d="M 0.109375 -2.777344 L 0.109375 -2.960938 C 0.167969 -3.015625 0.238281 -3.082031 0.324219 -3.15625 C 0.441406 -3.261719 0.550781 -3.371094 0.652344 -3.484375 C 0.851562 -3.703125 1.035156 -3.941406 1.203125 -4.195312 L 1.371094 -4.195312 L 1.371094 -3.070312 L 2.003906 -3.070312 L 2.003906 -2.777344 L 1.371094 -2.777344 L 1.371094 -0.773438 C 1.371094 -0.679688 1.382812 -0.601562 1.414062 -0.539062 C 1.457031 -0.441406 1.527344 -0.390625 1.628906 -0.390625 C 1.714844 -0.390625 1.789062 -0.421875 1.847656 -0.484375 C 1.90625 -0.546875 1.964844 -0.628906 2.023438 -0.738281 L 2.179688 -0.660156 C 2.101562 -0.476562 2.007812 -0.328125 1.902344 -0.214844 C 1.710938 -0.0117188 1.476562 0.0898438 1.203125 0.0898438 C 1.046875 0.0898438 0.910156 0.0585938 0.792969 0 C 0.566406 -0.113281 0.453125 -0.316406 0.453125 -0.617188 L 0.453125 -2.777344 Z "/>
</g>
<g id="glyph-0-3">
<path d="M 0.109375 -0.160156 C 0.230469 -0.175781 0.320312 -0.207031 0.375 -0.257812 C 0.433594 -0.308594 0.460938 -0.410156 0.460938 -0.5625 L 0.460938 -3.957031 C 0.460938 -4.089844 0.4375 -4.183594 0.390625 -4.238281 C 0.34375 -4.289062 0.25 -4.324219 0.109375 -4.34375 L 0.109375 -4.503906 L 1.398438 -4.503906 L 1.398438 -2.628906 C 1.535156 -2.792969 1.675781 -2.921875 1.828125 -3.011719 C 1.980469 -3.101562 2.148438 -3.148438 2.335938 -3.148438 C 2.59375 -3.148438 2.804688 -3.074219 2.972656 -2.925781 C 3.140625 -2.777344 3.222656 -2.523438 3.222656 -2.164062 L 3.222656 -0.5625 C 3.222656 -0.414062 3.25 -0.316406 3.300781 -0.269531 C 3.351562 -0.222656 3.433594 -0.1875 3.554688 -0.160156 L 3.554688 0 L 1.988281 0 L 1.988281 -0.160156 C 2.109375 -0.183594 2.191406 -0.214844 2.234375 -0.257812 C 2.277344 -0.296875 2.296875 -0.390625 2.296875 -0.539062 L 2.296875 -2.152344 C 2.296875 -2.304688 2.28125 -2.417969 2.253906 -2.492188 C 2.199219 -2.628906 2.097656 -2.699219 1.945312 -2.699219 C 1.828125 -2.699219 1.710938 -2.644531 1.585938 -2.539062 C 1.464844 -2.433594 1.402344 -2.359375 1.402344 -2.320312 L 1.402344 -0.539062 C 1.402344 -0.390625 1.425781 -0.296875 1.46875 -0.257812 C 1.511719 -0.214844 1.59375 -0.183594 1.710938 -0.160156 L 1.710938 0 L 0.109375 0 Z "/>
</g>
<g id="glyph-0-4">
<path d="M 0.148438 -1.53125 C 0.148438 -2.042969 0.285156 -2.441406 0.558594 -2.722656 C 0.832031 -3.007812 1.160156 -3.148438 1.542969 -3.148438 C 1.761719 -3.148438 1.96875 -3.089844 2.160156 -2.976562 C 2.355469 -2.859375 2.503906 -2.699219 2.609375 -2.496094 C 2.6875 -2.34375 2.738281 -2.144531 2.769531 -1.898438 C 2.785156 -1.78125 2.792969 -1.695312 2.792969 -1.632812 L 1.09375 -1.632812 C 1.109375 -1.367188 1.152344 -1.136719 1.222656 -0.941406 C 1.355469 -0.574219 1.582031 -0.390625 1.910156 -0.390625 C 2.066406 -0.390625 2.214844 -0.441406 2.355469 -0.539062 C 2.4375 -0.597656 2.542969 -0.695312 2.667969 -0.832031 L 2.824219 -0.738281 C 2.617188 -0.398438 2.378906 -0.164062 2.105469 -0.03125 C 1.929688 0.0507812 1.730469 0.09375 1.5 0.09375 C 1.171875 0.09375 0.867188 -0.0351562 0.578125 -0.292969 C 0.292969 -0.550781 0.148438 -0.964844 0.148438 -1.53125 Z M 1.972656 -1.882812 C 1.96875 -2.273438 1.9375 -2.550781 1.882812 -2.707031 C 1.824219 -2.863281 1.710938 -2.941406 1.542969 -2.941406 C 1.371094 -2.941406 1.25 -2.847656 1.1875 -2.667969 C 1.121094 -2.488281 1.085938 -2.226562 1.078125 -1.882812 Z "/>
</g>
<g id="glyph-0-5">
<path d="M 1.460938 -0.382812 C 1.570312 -0.382812 1.671875 -0.414062 1.765625 -0.480469 C 1.816406 -0.519531 1.878906 -0.578125 1.949219 -0.660156 L 1.949219 -1.632812 C 1.773438 -1.589844 1.617188 -1.523438 1.480469 -1.429688 C 1.253906 -1.269531 1.140625 -1.070312 1.140625 -0.824219 C 1.140625 -0.679688 1.171875 -0.566406 1.238281 -0.492188 C 1.304688 -0.417969 1.378906 -0.382812 1.460938 -0.382812 Z M 0.167969 -0.621094 C 0.167969 -0.921875 0.3125 -1.160156 0.601562 -1.335938 C 0.890625 -1.511719 1.34375 -1.6875 1.960938 -1.867188 L 1.960938 -2.351562 C 1.960938 -2.546875 1.917969 -2.695312 1.835938 -2.789062 C 1.75 -2.882812 1.601562 -2.929688 1.390625 -2.929688 C 1.269531 -2.929688 1.171875 -2.90625 1.09375 -2.863281 C 1.019531 -2.820312 0.980469 -2.761719 0.980469 -2.695312 C 0.980469 -2.667969 0.984375 -2.648438 0.992188 -2.628906 C 1 -2.613281 1.015625 -2.59375 1.03125 -2.574219 L 1.070312 -2.53125 C 1.101562 -2.492188 1.125 -2.453125 1.144531 -2.40625 C 1.164062 -2.363281 1.171875 -2.316406 1.171875 -2.265625 C 1.171875 -2.140625 1.128906 -2.042969 1.046875 -1.972656 C 0.964844 -1.90625 0.867188 -1.871094 0.753906 -1.871094 C 0.625 -1.871094 0.519531 -1.910156 0.429688 -1.984375 C 0.339844 -2.0625 0.292969 -2.171875 0.292969 -2.316406 C 0.292969 -2.570312 0.414062 -2.773438 0.65625 -2.921875 C 0.894531 -3.074219 1.191406 -3.148438 1.542969 -3.148438 C 1.921875 -3.148438 2.238281 -3.074219 2.492188 -2.929688 C 2.742188 -2.78125 2.867188 -2.511719 2.867188 -2.117188 L 2.867188 -0.5 C 2.867188 -0.453125 2.878906 -0.414062 2.90625 -0.378906 C 2.929688 -0.34375 2.957031 -0.328125 2.988281 -0.328125 C 3.015625 -0.328125 3.039062 -0.332031 3.058594 -0.34375 C 3.078125 -0.351562 3.109375 -0.378906 3.15625 -0.421875 L 3.253906 -0.285156 C 3.125 -0.132812 2.980469 -0.0234375 2.824219 0.0351562 C 2.722656 0.0742188 2.617188 0.09375 2.507812 0.09375 C 2.308594 0.09375 2.164062 0.0351562 2.074219 -0.078125 C 2.023438 -0.144531 1.984375 -0.238281 1.960938 -0.367188 C 1.777344 -0.183594 1.566406 -0.0546875 1.335938 0.0234375 C 1.195312 0.0703125 1.054688 0.09375 0.917969 0.09375 C 0.734375 0.09375 0.566406 0.0351562 0.40625 -0.078125 C 0.25 -0.195312 0.167969 -0.375 0.167969 -0.621094 Z "/>
</g>
<g id="glyph-0-6">
<path d="M 1.882812 -1.691406 C 1.859375 -1.222656 1.773438 -0.8125 1.625 -0.460938 C 1.476562 -0.109375 1.257812 0.21875 0.972656 0.527344 C 0.835938 0.675781 0.667969 0.816406 0.476562 0.941406 C 0.28125 1.066406 0.175781 1.128906 0.152344 1.128906 L 0.152344 0.945312 C 0.511719 0.691406 0.746094 0.441406 0.863281 0.1875 C 1.039062 -0.199219 1.125 -0.847656 1.125 -1.75 C 1.125 -2.65625 1.039062 -3.304688 0.859375 -3.695312 C 0.746094 -3.941406 0.511719 -4.191406 0.152344 -4.445312 L 0.152344 -4.628906 C 0.738281 -4.308594 1.179688 -3.882812 1.476562 -3.351562 C 1.746094 -2.859375 1.882812 -2.304688 1.882812 -1.691406 Z "/>
</g>
<g id="glyph-0-7">
<rect x="0" y="0" width="0" height="0" mask="url(#mask-0)"/>
</g>
<g id="glyph-0-8">
<path d="M 3.632812 -1.363281 L 3.632812 -0.683594 L 0.160156 -0.683594 L 0.160156 -1.363281 Z M 3.632812 -2.792969 L 3.632812 -2.105469 L 0.160156 -2.105469 L 0.160156 -2.792969 Z "/>
</g>
<g id="glyph-0-9">
<path d="M 2.035156 -4.605469 L 3.371094 -1.710938 L 2.707031 -1.710938 L 1.898438 -3.570312 L 1.09375 -1.710938 L 0.429688 -1.710938 L 1.765625 -4.605469 Z "/>
</g>
<g id="glyph-0-10">
<path d="M 0.113281 -0.152344 C 0.824219 -0.921875 1.285156 -1.457031 1.5 -1.757812 C 1.832031 -2.214844 1.996094 -2.617188 1.996094 -2.96875 C 1.996094 -3.175781 1.933594 -3.371094 1.804688 -3.554688 C 1.679688 -3.734375 1.480469 -3.824219 1.214844 -3.824219 C 0.980469 -3.824219 0.78125 -3.742188 0.621094 -3.582031 C 0.535156 -3.492188 0.457031 -3.371094 0.390625 -3.222656 L 0.207031 -3.222656 C 0.355469 -3.683594 0.558594 -4.027344 0.820312 -4.25 C 1.082031 -4.472656 1.375 -4.582031 1.699219 -4.582031 C 2.007812 -4.582031 2.289062 -4.476562 2.539062 -4.261719 C 2.789062 -4.046875 2.917969 -3.734375 2.917969 -3.320312 C 2.917969 -3.101562 2.859375 -2.882812 2.738281 -2.652344 C 2.621094 -2.425781 2.421875 -2.179688 2.140625 -1.910156 L 1.125 -0.941406 L 1.125 -0.886719 L 2.074219 -0.886719 C 2.402344 -0.886719 2.617188 -0.914062 2.71875 -0.96875 C 2.820312 -1.023438 2.921875 -1.167969 3.023438 -1.402344 L 3.183594 -1.402344 L 2.882812 0 L 0.113281 0 Z "/>
</g>
</g>
<image id="source-12" x="0" y="0" width="0" height="0"/>
<mask id="mask-0">
<use xlink:href="#source-12"/>
</mask>
</defs>
<g fill="rgb(23.137255%, 50.980392%, 96.470588%)" fill-opacity="1">
<use xlink:href="#glyph-0-0" x="30" y="25"/>
<use xlink:href="#glyph-0-1" x="34" y="25"/>
<use xlink:href="#glyph-0-2" x="36" y="25"/>
<use xlink:href="#glyph-0-3" x="38" y="25"/>
<use xlink:href="#glyph-0-4" x="42" y="25"/>
<use xlink:href="#glyph-0-2" x="45" y="25"/>
<use xlink:href="#glyph-0-5" x="47" y="25"/>
<use xlink:href="#glyph-0-6" x="50" y="25"/>
<use xlink:href="#glyph-0-7" x="52" y="25"/>
<use xlink:href="#glyph-0-8" x="54" y="25"/>
<use xlink:href="#glyph-0-7" x="58" y="25"/>
<use xlink:href="#glyph-0-2" x="60" y="25"/>
<use xlink:href="#glyph-0-3" x="62" y="25"/>
<use xlink:href="#glyph-0-4" x="66" y="25"/>
<use xlink:href="#glyph-0-2" x="69" y="25"/>
<use xlink:href="#glyph-0-5" x="71" y="25"/>
<use xlink:href="#glyph-0-9" x="74" y="25"/>
<use xlink:href="#glyph-0-10" x="78" y="25"/>
</g>
</svg>
